<?xml version="1.0" standalone="no"?>
<!DOCTYPE svg PUBLIC "-//W3C//DTD SVG 20010904//EN"
 "http://www.w3.org/TR/2001/REC-SVG-20010904/DTD/svg10.dtd">
<svg version="1.0" xmlns="http://www.w3.org/2000/svg"
 width="896.000000pt" height="896.000000pt" viewBox="0 0 896.000000 896.000000"
 preserveAspectRatio="xMidYMid meet">
<metadata>
Created by potrace 1.11, written by Peter Selinger 2001-2013
</metadata>
<g transform="translate(0.000000,896.000000) scale(0.100000,-0.100000)"
fill="#000000" stroke="none">
<path d="M3525 8950 c-3 -5 -4 -10 -1 -10 3 0 -1 -17 -9 -37 -12 -32 -77 -237
-80 -253 -1 -7 -74 -236 -92 -290 -8 -25 -16 -52 -18 -60 -2 -8 -22 -71 -45
-140 -23 -69 -42 -129 -44 -135 -2 -11 -56 -184 -197 -625 -24 -74 -44 -137
-44 -140 -1 -3 -16 -52 -34 -110 -19 -58 -34 -111 -34 -117 0 -7 -5 -13 -10
-13 -6 0 -8 -3 -5 -6 4 -3 -7 -45 -23 -92 -16 -48 -32 -100 -35 -116 -3 -16
-8 -34 -12 -40 -4 -6 -7 -13 -8 -16 0 -3 -3 -12 -6 -20 -10 -25 -40 -124 -43
-142 -2 -9 -9 -27 -16 -40 -7 -13 -11 -24 -10 -26 3 -3 -26 -97 -121 -392 -22
-69 -42 -132 -43 -140 -2 -8 -4 -16 -5 -17 -2 -2 -4 -7 -5 -13 -1 -5 -4 -12
-5 -15 -1 -3 -4 -9 -5 -15 -1 -5 -4 -12 -5 -15 -1 -3 -3 -8 -4 -12 -2 -5 -8
-26 -14 -48 -6 -22 -10 -43 -9 -46 1 -3 -4 -13 -12 -22 -7 -10 -10 -17 -6 -17
4 0 3 -6 -2 -12 -6 -7 -13 -26 -17 -43 -4 -16 -23 -79 -43 -140 -19 -60 -36
-114 -37 -120 -5 -24 -125 -397 -143 -445 -4 -8 -7 -19 -7 -25 -2 -16 -70
-231 -94 -295 -3 -8 -4 -19 -3 -24 1 -4 -4 -14 -10 -22 -6 -8 -9 -14 -6 -14 3
0 -1 -17 -9 -37 -9 -20 -18 -45 -20 -55 -10 -45 -13 -55 -24 -83 -6 -16 -13
-37 -15 -45 -2 -8 -10 -35 -18 -60 -9 -25 -39 -119 -67 -210 -28 -91 -58 -183
-65 -205 -25 -73 -116 -364 -120 -383 -2 -10 -10 -34 -17 -53 -8 -18 -15 -36
-15 -39 0 -6 -7 -30 -78 -253 -31 -98 -58 -183 -59 -190 -2 -7 -6 -19 -9 -27
-11 -28 -59 -185 -63 -204 -2 -10 -8 -24 -15 -32 -6 -8 -9 -14 -6 -14 3 0 -5
-32 -18 -70 -13 -39 -22 -70 -19 -70 3 0 -1 -10 -7 -22 -7 -12 -18 -43 -25
-68 -6 -25 -42 -139 -79 -255 -37 -115 -68 -217 -70 -226 -2 -10 -8 -26 -14
-37 -6 -11 -7 -22 -4 -26 3 -3 1 -6 -5 -6 -6 0 -9 -7 -6 -15 4 -8 2 -15 -3
-15 -5 0 -10 -6 -10 -12 0 -7 -6 -33 -13 -58 -8 -25 -14 -47 -14 -50 -1 -3 -5
-11 -9 -17 -5 -7 -6 -13 -2 -13 3 0 -1 -14 -10 -30 -9 -17 -13 -30 -11 -30 3
0 -2 -17 -11 -37 -8 -21 -15 -38 -14 -38 1 0 0 -7 -3 -15 -13 -41 -66 -213
-85 -275 -12 -38 -25 -77 -28 -85 -3 -8 -7 -19 -8 -25 0 -5 -4 -17 -7 -25 -11
-27 -49 -145 -51 -160 -2 -8 -16 -53 -31 -100 -15 -47 -29 -89 -30 -95 -2 -5
-6 -17 -9 -25 -6 -17 -31 -93 -32 -100 -1 -3 -5 -16 -9 -30 -60 -189 -109
-344 -111 -354 -1 -6 -5 -19 -9 -28 -4 -9 -9 -22 -10 -30 -2 -7 -6 -20 -9 -28
-3 -8 -23 -71 -44 -140 l-39 -125 675 -3 c372 -1 686 0 699 3 13 3 20 10 17
15 -4 6 1 13 9 16 9 3 16 10 16 15 0 6 5 15 10 22 6 7 58 80 116 162 57 83
111 158 119 168 8 9 15 19 15 21 0 8 204 291 214 298 6 4 8 8 4 8 -5 0 115
174 218 315 29 40 139 197 149 213 6 9 14 21 18 26 49 67 97 137 97 145 0 5 7
11 15 15 8 3 15 12 15 20 0 8 4 16 8 18 4 2 55 71 112 153 57 83 108 155 112
160 5 6 43 60 86 120 42 61 80 111 84 113 5 2 8 8 8 13 0 5 23 41 51 80 59 80
132 185 216 309 32 47 60 87 64 90 3 3 21 27 40 55 18 27 40 56 47 63 6 7 12
17 12 21 0 4 8 16 18 27 9 10 32 42 50 69 17 28 39 59 48 70 15 19 100 139
126 179 7 10 19 24 26 32 6 7 12 16 12 21 0 4 11 21 25 37 14 16 25 32 25 36
0 3 8 15 18 26 19 22 39 49 103 144 49 72 49 72 84 116 14 18 25 34 25 37 0 4
21 35 48 71 74 101 177 248 181 260 2 6 7 13 11 16 4 3 48 64 98 135 50 72 94
135 99 140 4 6 17 23 27 40 11 16 23 34 28 40 4 5 30 40 56 77 26 37 70 99 97
138 28 39 57 81 65 94 18 28 136 196 148 211 8 10 84 117 102 145 34 50 203
288 215 303 8 9 15 19 15 22 0 3 25 39 55 80 30 40 55 77 55 80 0 3 5 11 10
18 39 46 50 61 50 68 0 4 7 15 17 24 9 9 41 54 72 99 31 45 64 93 74 106 16
22 115 163 149 214 7 10 19 24 26 32 6 7 12 17 12 22 0 6 3 12 8 14 4 2 20 23
37 48 16 25 32 47 35 50 3 3 21 28 40 55 19 28 38 52 42 53 4 2 8 8 8 14 0 6
14 27 30 48 17 21 30 42 30 48 0 5 7 12 15 16 8 3 15 12 15 21 0 8 5 15 10 15
6 0 10 7 10 15 0 8 4 15 8 15 4 0 16 13 25 30 10 16 23 35 30 42 7 7 23 29 35
49 20 34 110 160 132 186 5 7 10 16 10 22 0 5 3 11 8 13 7 3 16 15 79 108 21
30 43 61 50 68 7 8 18 23 24 34 10 18 84 124 107 153 4 6 28 39 52 75 24 36
47 67 52 68 4 2 8 10 8 18 0 8 4 14 8 14 5 0 14 10 19 23 6 12 18 31 27 42 38
47 156 217 156 225 0 4 3 10 8 12 7 3 16 15 79 108 21 30 42 60 48 67 12 14
24 31 151 213 51 74 97 140 102 145 7 9 73 102 112 159 64 93 155 222 159 226
13 11 71 101 71 109 0 5 3 11 8 13 12 5 112 146 112 158 0 5 3 10 8 10 4 0 18
17 32 38 32 48 127 184 138 197 4 6 11 16 16 23 6 9 -480 12 -2418 12 -1606 0
-2427 -3 -2431 -10z"/>
</g>
</svg>
