<?xml version="1.0" encoding="UTF-8"?>
<svg width="232px" height="28px" viewBox="0 0 232 28" version="1.1" xmlns="http://www.w3.org/2000/svg" xmlns:xlink="http://www.w3.org/1999/xlink">
    <title>Group</title>
    <g id="Page-1" stroke="none" stroke-width="1" fill="none" fill-rule="evenodd">
        <g id="Desktop-HD-Copy-5" transform="translate(-588.000000, -487.000000)">
            <g id="Group" transform="translate(588.694856, 487.000000)">
                <path d="M40.0051442,28 L40.0051442,17.08 L50.8051442,17.08 L50.8051442,28 L58.7251442,28 L58.7251442,0 L50.8051442,0 L50.8051442,10.52 L40.0051442,10.52 L40.0051442,0 L32.0851442,0 L32.0851442,28 L40.0051442,28 Z M72.2451442,28 L72.2451442,20.56 L76.5651442,20.56 L81.6451442,28 L90.1251442,28 L84.0851442,19.2 C87.5651442,17.52 89.5651442,14.48 89.5651442,10.36 C89.5651442,3.96 84.7651442,0 77.1251442,0 L64.3251442,0 L64.3251442,28 L72.2451442,28 Z M76.6451442,14.44 L72.2451442,14.44 L72.2451442,6.24 L76.6451442,6.24 C79.9251442,6.24 81.5651442,7.76 81.5651442,10.36 C81.5651442,12.92 79.9251442,14.44 76.6451442,14.44 Z M108.565144,28 C115.565144,28 119.085144,25.28 119.085144,20.52 C119.085144,16.72 116.925144,14.36 113.325144,13.56 C115.885144,12.52 117.605144,10.4 117.605144,7.2 C117.605144,2.64 114.005144,0 107.765144,0 L95.6851442,0 L95.6851442,28 L108.565144,28 Z M107.565144,12.6 L98.6451442,12.6 L98.6451442,2.44 L107.565144,2.44 C112.045144,2.44 114.645144,4.16 114.645144,7.52 C114.645144,10.88 112.045144,12.6 107.565144,12.6 Z M108.525144,25.56 L98.6451442,25.56 L98.6451442,15.04 L108.525144,15.04 C113.445144,15.04 116.125144,16.64 116.125144,20.28 C116.125144,23.96 113.445144,25.56 108.525144,25.56 Z M144.485144,28 L144.485144,25.44 L128.805144,25.44 L128.805144,0 L125.845144,0 L125.845144,28 L144.485144,28 Z M148.005144,28 L151.365144,20.52 L166.965144,20.52 L170.325144,28 L173.445144,28 L160.645144,0 L157.725144,0 L144.925144,28 L148.005144,28 Z M165.885144,18.12 L152.445144,18.12 L159.165144,3.08 L165.885144,18.12 Z M189.485144,28 C198.445144,28 204.485144,22.24 204.485144,14 C204.485144,5.76 198.445144,0 189.485144,0 L178.085144,0 L178.085144,28 L189.485144,28 Z M189.325144,25.44 L181.045144,25.44 L181.045144,2.56 L189.325144,2.56 C196.765144,2.56 201.565144,7.28 201.565144,14 C201.565144,20.72 196.765144,25.44 189.325144,25.44 Z M230.925144,28 L230.925144,25.44 L214.085144,25.44 L214.085144,15.04 L228.565144,15.04 L228.565144,12.52 L214.085144,12.52 L214.085144,2.56 L230.325144,2.56 L230.325144,0 L211.125144,0 L211.125144,28 L230.925144,28 Z" id="HRBLADE" fill="#FFFFFF" fill-rule="nonzero"></path>
                <polygon id="Rectangle" fill="#FDA94C" points="8.84489226 0 24 0 4.30514422 28 0 28"></polygon>
            </g>
        </g>
    </g>
</svg>