<?xml version="1.0" encoding="UTF-8"?>
<svg width="181px" height="22px" viewBox="0 0 181 22" version="1.1" xmlns="http://www.w3.org/2000/svg" xmlns:xlink="http://www.w3.org/1999/xlink">
    <title>logo bk</title>
    <g id="Symbols" stroke="none" stroke-width="1" fill="none" fill-rule="evenodd">
        <g id="Logo-big/bk" transform="translate(0.000000, -9.000000)" fill-rule="nonzero">
            <g id="logo-bk" transform="translate(0.000000, 9.000000)">
                <path d="M31.7530174,21.8448276 L31.7530174,13.3253448 L40.1788795,13.3253448 L40.1788795,21.8448276 L46.357845,21.8448276 L46.357845,0 L40.1788795,0 L40.1788795,8.20741379 L31.7530174,8.20741379 L31.7530174,0 L25.5740519,0 L25.5740519,21.8448276 L31.7530174,21.8448276 Z M56.905776,21.8448276 L56.905776,16.0403448 L60.2761208,16.0403448 L64.2393967,21.8448276 L70.8552588,21.8448276 L66.1430174,14.9793103 C68.8580174,13.6686207 70.4183622,11.2968966 70.4183622,8.08258621 C70.4183622,3.08948276 66.6735346,0 60.7130174,0 L50.7268105,0 L50.7268105,21.8448276 L56.905776,21.8448276 Z M60.3385346,11.2656897 L56.905776,11.2656897 L56.905776,4.86827586 L60.3385346,4.86827586 C62.8975002,4.86827586 64.1769829,6.05413793 64.1769829,8.08258621 C64.1769829,10.0798276 62.8975002,11.2656897 60.3385346,11.2656897 Z M85.2416379,21.8448276 C90.7028448,21.8448276 93.4490517,19.7227586 93.4490517,16.0091379 C93.4490517,13.0444828 91.7638793,11.2032759 88.9552586,10.5791379 C90.9525,9.76775862 92.2943966,8.1137931 92.2943966,5.61724138 C92.2943966,2.05965517 89.4857759,0 84.6175,0 L75.1930174,0 L75.1930174,21.8448276 L85.2416379,21.8448276 Z M84.4614655,9.83017241 L77.5023277,9.83017241 L77.5023277,1.90362069 L84.4614655,1.90362069 C87.9566379,1.90362069 89.9850862,3.24551724 89.9850862,5.86689655 C89.9850862,8.48827586 87.9566379,9.83017241 84.4614655,9.83017241 Z M85.210431,19.9412069 L77.5023277,19.9412069 L77.5023277,11.7337931 L85.210431,11.7337931 C89.0488793,11.7337931 91.1397414,12.982069 91.1397414,15.8218966 C91.1397414,18.692931 89.0488793,19.9412069 85.210431,19.9412069 Z M113.265431,21.8448276 L113.265431,19.8475862 L101.032328,19.8475862 L101.032328,0 L98.7230172,0 L98.7230172,21.8448276 L113.265431,21.8448276 Z M116.011638,21.8448276 L118.633017,16.0091379 L130.803707,16.0091379 L133.425086,21.8448276 L135.859224,21.8448276 L125.873017,0 L123.594914,0 L113.608707,21.8448276 L116.011638,21.8448276 Z M129.961121,14.1367241 L119.475603,14.1367241 L124.718362,2.40293103 L129.961121,14.1367241 Z M148.37319,21.8448276 C155.363534,21.8448276 160.075776,17.3510345 160.075776,10.9224138 C160.075776,4.4937931 155.363534,0 148.37319,0 L139.479224,0 L139.479224,21.8448276 L148.37319,21.8448276 Z M148.248362,19.8475862 L141.788534,19.8475862 L141.788534,1.99724138 L148.248362,1.99724138 C154.052845,1.99724138 157.797672,5.67965517 157.797672,10.9224138 C157.797672,16.1651724 154.052845,19.8475862 148.248362,19.8475862 Z M180.703534,21.8448276 L180.703534,19.8475862 L167.565431,19.8475862 L167.565431,11.7337931 L178.862328,11.7337931 L178.862328,9.76775862 L167.565431,9.76775862 L167.565431,1.99724138 L180.235431,1.99724138 L180.235431,0 L165.256121,0 L165.256121,21.8448276 L180.703534,21.8448276 Z" id="HRBLADE" fill="#363151"></path>
                <polygon id="Rectangle" fill="#FDA94C" points="7.44264843 0 19.2662454 0 3.90086224 21.8448276 0.542107483 21.8448276"></polygon>
            </g>
        </g>
    </g>
</svg>