<svg xmlns="http://www.w3.org/2000/svg" viewBox="0 0 407 36"><defs><linearGradient id="a" x1="45.974%" x2="54.877%" y1="-2.335%" y2="100.316%"><stop offset="0%" stop-color="#222357"/><stop offset="100%" stop-color="#254AA5"/></linearGradient></defs><g fill="none" fill-rule="evenodd"><path fill="url(#a)" fill-rule="nonzero" d="M36.72 15.647c-.041-3.204 2.846-4.992 5.02-6.055 2.235-1.09 2.985-1.79 2.977-2.765-.017-1.493-1.783-2.152-3.435-2.177-2.882-.045-4.558.78-5.89 1.405L34.352 1.18C35.69.562 38.165.024 40.732 0c6.025 0 9.967 2.984 9.988 7.61.024 5.87-8.095 6.196-8.04 8.82.02.795.777 1.644 2.435 1.86.821.11 3.087.193 5.657-.994l1.008 4.716c-1.382.505-3.158.988-5.368.988-5.672 0-9.66-3.024-9.692-7.353m24.75 6.947c-1.1 0-2.028-.644-2.441-1.632L50.422.346h6.02l1.199 3.322h7.357l.695-3.322H71l-4.63 22.248h-4.9m.842-6.01L64.05 8.23H59.29l3.021 8.354m-32.892 6.01L24.674.346h5.737l4.744 22.248H29.42m-8.488 0L14.96 7.45l-2.415 12.876c-.284 1.437-1.403 2.267-2.646 2.267H.136L0 21.948c2.004-.437 4.281-1.14 5.66-1.893.845-.46 1.086-.862 1.363-1.955L11.598.346h6.064l9.295 22.248h-6.025" transform="matrix(1 0 0 -1 0 27)"/><g fill-rule="nonzero"><path fill="#FFF" d="M242 30.903h-29V1.48h29v14.615z"/><path fill="#0079C2" d="M231.446 22.409l-.704-.889v.889h-2.072v-1.275a3.25 3.25 0 01-.913.135h-.324v1.12h-3.042l-.514-.733-.494.733h-5.001v-5.02H223.383l.513.734.514-.733H242V1.48h-28.981v11.623l.97-2.298h1.978l.57 1.294v-1.294h2.415l.361 1.1.362-1.1h10.649v.502c.418-.347.932-.502 1.521-.502h3.233l.57 1.294v-1.294h1.902l.628 1.024v-1.024h2.168v5.02h-2.016l-.609-.985v.985h-2.947l-.285-.753h-.685l-.285.753h-1.73c-.476 0-1.028-.096-1.465-.463v.463h-2.91l-.703-.888v.888h-11.087l-.285-.753h-.685l-.285.753H213v15.078h29V22.1a2.056 2.056 0 01-1.103.309h-9.451z"/><path fill="#0D79BF" d="M241.923 18.23v-.019h-1.78c-.755 0-1.2.462-1.2 1.077 0 .654.426 1.02 1.084 1.02h.793c.193 0 .348.115.348.307s-.135.308-.348.308h-1.78v.73h1.76c.58 0 .968-.269 1.123-.692a1.25 1.25 0 00.077-.404.973.973 0 00-.077-.423c-.155-.365-.503-.577-1.006-.577h-.813c-.194 0-.329-.134-.329-.307 0-.193.135-.308.329-.308h1.49l.329-.712zm-5.34 1.039c0-.193.135-.308.329-.308h1.49l.328-.73h-1.799c-.755 0-1.2.46-1.2 1.076 0 .654.426 1.02 1.084 1.02h.793c.194 0 .348.115.348.307s-.135.308-.348.308h-1.78v.73h1.76c.755 0 1.2-.46 1.2-1.096 0-.634-.406-1-1.083-1h-.813c-.174 0-.31-.115-.31-.307m-3.985 2.404h2.786v-.731h-1.954v-.635h1.896v-.711h-1.896v-.616h1.954v-.73h-2.786v3.423zm-.193 0l-1.161-1.27c.58-.115.948-.538.948-1.096 0-.654-.465-1.096-1.2-1.096h-1.896v3.462h.832v-1.231h.387l1.026 1.23h1.064zm-1.49-1.962h-.967v-.77h.967c.29 0 .445.174.445.385-.02.231-.155.385-.445.385m-2.264-.346c0-.692-.464-1.154-1.2-1.154h-1.915v3.462h.832v-1.135h1.045c.774 0 1.238-.5 1.238-1.173m-.851.02c0 .23-.155.422-.445.422h-1.006v-.846h1.006c.31 0 .445.173.445.423m-2.418 2.289l-1.394-1.75 1.394-1.712h-1.026l-.851 1.096-.851-1.096h-1.045l1.393 1.73-1.393 1.732h1.025l.851-1.116.852 1.116h1.045zm-6.695 0h2.786v-.731h-1.954v-.635h1.896v-.711h-1.896v-.616h1.954v-.73h-2.786v3.423zM239.725 14.75v-3.462h-.804v1.827l.02.423h-.02l-.23-.385-1.205-1.865h-1.015v3.462h.804v-1.924l-.02-.403h.02l.23.384 1.263 1.943h.957zm-4.364 0h.938l-1.474-3.462h-1.092l-1.474 3.462h.88l.288-.731h1.627l.307.73zm-.575-1.404h-1.091l.325-.808.211-.538h.02l.21.538.325.808zm-2.871-1.308h.9v-.75h-.958c-1.072 0-1.646.712-1.646 1.692v.058c0 1.038.593 1.692 1.589 1.692h.057l.345-.73h-.25c-.554 0-.899-.347-.899-.962v-.058c-.019-.538.268-.942.862-.942m-3.025 2.712h.823v-3.462h-.823V14.75zm-.21 0l-1.15-1.27c.575-.115.939-.538.939-1.096 0-.654-.46-1.096-1.187-1.096h-1.876v3.462h.823v-1.231h.383l1.014 1.23h1.053zm-1.475-1.962h-.957v-.77h.957c.287 0 .44.174.44.385-.019.212-.153.385-.44.385m-5.111 1.962h2.756v-.731h-1.914v-.635h1.876v-.711h-1.876v-.616h1.914v-.73h-2.756v3.423zm-1.436 0h.804v-3.462h-1.34l-.67 2-.115.385h-.02l-.114-.385-.67-2h-1.34v3.462h.804v-2.27l-.02-.519h.02l.172.52.785 2.269h.747l.784-2.27.173-.519h.019l-.02.52v2.269zm-4.557 0h.938l-1.474-3.462h-1.09L213 14.75h.88l.288-.731h1.627l.306.73zm-.555-1.404h-1.091l.325-.808.211-.538h.02l.21.538.325.808z"/></g><g fill-rule="nonzero"><path fill="#6C6BBD" d="M179.571 25.605H167V4.64h12.571z"/><path fill="#D32011" d="M168.025 14.839c0-4.338 2.057-8.202 5.26-10.692a13.826 13.826 0 00-8.512-2.908c-7.607 0-13.773 6.089-13.773 13.6 0 7.51 6.166 13.6 13.773 13.6 3.213 0 6.17-1.087 8.513-2.908-3.204-2.49-5.261-6.354-5.261-10.692"/><path fill="#0099DF" d="M195 14.839c0 7.51-6.166 13.6-13.773 13.6a13.83 13.83 0 01-8.513-2.908c3.205-2.49 5.262-6.354 5.262-10.692s-2.057-8.202-5.262-10.692a13.83 13.83 0 018.513-2.908c7.607 0 13.773 6.089 13.773 13.6"/><path fill="#110F0D" d="M183.299 31.083c.159 0 .387.029.562.093l-.244.696a1.354 1.354 0 00-.492-.085c-.516 0-.774.312-.774.873v1.904h-.789v-3.395h.781v.412c.205-.298.501-.498.956-.498zm-2.915.76h-1.288v1.535c0 .34.128.568.523.568.205 0 .463-.064.697-.192l.227.632c-.25.163-.644.263-.985.263-.933 0-1.258-.469-1.258-1.257v-1.548h-.736v-.675h.736v-1.03h.796v1.03h1.288v.675zm-10.093.725c.085-.49.402-.824.964-.824.508 0 .834.298.917.824h-1.88zm2.7.298c-.007-1.058-.705-1.783-1.721-1.783-1.062 0-1.805.725-1.805 1.783 0 1.08.773 1.783 1.858 1.783.546 0 1.046-.128 1.486-.476l-.387-.547c-.303.227-.69.355-1.054.355-.507 0-.97-.22-1.084-.83h2.692c.008-.094.015-.185.015-.285zm3.465-.83a2.443 2.443 0 00-1.129-.292c-.432 0-.69.15-.69.398 0 .227.273.291.614.333l.371.05c.79.107 1.266.42 1.266 1.016 0 .647-.606 1.108-1.652 1.108-.592 0-1.138-.142-1.57-.44l.371-.576c.266.192.66.355 1.207.355.538 0 .826-.148.826-.412 0-.19-.205-.298-.637-.354l-.372-.05c-.811-.107-1.251-.448-1.251-1.002 0-.674.592-1.087 1.51-1.087.576 0 1.099.122 1.477.356l-.34.597zm9.725-.25c-.162 0-.312.026-.452.079a1.037 1.037 0 00-.6.57 1.103 1.103 0 00-.087.443c0 .162.028.309.087.443a1.037 1.037 0 00.6.57c.14.053.29.08.452.08.163 0 .314-.027.453-.08.14-.054.26-.129.362-.225a1.03 1.03 0 00.242-.345 1.1 1.1 0 00.087-.443c0-.161-.028-.31-.087-.443a1.03 1.03 0 00-.242-.346 1.092 1.092 0 00-.362-.224 1.262 1.262 0 00-.453-.08zm0-.703c.282 0 .542.046.781.138.24.09.447.217.622.377s.311.35.41.568c.1.218.149.456.149.712a1.707 1.707 0 01-.56 1.28c-.174.16-.381.286-.62.378-.24.09-.5.136-.782.136a2.18 2.18 0 01-.78-.136 1.906 1.906 0 01-.62-.378 1.707 1.707 0 01-.557-1.28 1.707 1.707 0 01.557-1.28c.174-.16.38-.286.62-.377.239-.092.5-.138.78-.138zm-20.497 1.783c0-.596.418-1.087 1.1-1.087.652 0 1.092.47 1.092 1.087 0 .618-.44 1.087-1.092 1.087-.682 0-1.1-.49-1.1-1.087zm2.935 0V31.17h-.788v.412c-.251-.306-.63-.498-1.145-.498-1.016 0-1.812.746-1.812 1.783s.796 1.783 1.812 1.783c.516 0 .894-.192 1.145-.497v.412h.788v-1.698zm-4.443 1.698v-2.13c0-.803-.546-1.343-1.425-1.35-.463-.008-.941.127-1.274.604-.25-.377-.645-.605-1.199-.605-.386 0-.765.107-1.061.505v-.42h-.788v3.396h.795v-1.882c0-.59.35-.903.887-.903.524 0 .79.32.79.896v1.889h.795v-1.882c0-.59.365-.903.887-.903.54 0 .797.32.797.896v1.889h.796z"/></g><g fill-rule="nonzero"><path fill="#000" d="M97.031 34.597v-2.25c0-.862-.526-1.425-1.427-1.425-.45 0-.939.15-1.277.638-.263-.413-.638-.638-1.201-.638-.376 0-.751.113-1.052.525v-.45h-.788v3.6h.788V32.61c0-.638.338-.938.864-.938s.789.338.789.938v1.987h.788V32.61c0-.638.376-.938.864-.938.525 0 .788.338.788.938v1.987h.864zm11.678-3.6h-1.276V29.91h-.789v1.087h-.713v.713h.713v1.65c0 .825.338 1.312 1.24 1.312.337 0 .713-.112.976-.262l-.226-.675c-.225.15-.488.187-.676.187-.375 0-.525-.225-.525-.6V31.71h1.276v-.713zm6.684-.075c-.45 0-.75.225-.938.525v-.45h-.789v3.6h.789v-2.025c0-.6.263-.937.75-.937.15 0 .339.037.489.075l.225-.75c-.15-.038-.375-.038-.526-.038zm-10.1.375c-.376-.262-.902-.375-1.465-.375-.901 0-1.502.45-1.502 1.163 0 .6.45.937 1.239 1.05l.375.037c.413.075.639.188.639.375 0 .263-.3.45-.826.45s-.94-.187-1.202-.375l-.375.6c.413.3.976.45 1.54.45 1.05 0 1.651-.487 1.651-1.162 0-.638-.488-.975-1.239-1.088l-.375-.037c-.338-.038-.601-.113-.601-.338 0-.262.263-.412.676-.412.45 0 .901.187 1.126.3l.338-.638zm20.953-.375c-.45 0-.751.225-.94.525v-.45h-.788v3.6h.789v-2.025c0-.6.263-.937.751-.937.15 0 .338.037.488.075l.225-.75c-.15-.038-.375-.038-.525-.038zm-10.064 1.875c0 1.088.751 1.875 1.915 1.875.526 0 .901-.112 1.277-.412l-.376-.638c-.3.225-.6.338-.938.338-.639 0-1.09-.45-1.09-1.163 0-.675.451-1.125 1.09-1.162.338 0 .638.112.938.337l.376-.637c-.376-.3-.751-.413-1.277-.413-1.164 0-1.915.788-1.915 1.875zm7.285 0v-1.8h-.789v.45c-.262-.337-.638-.525-1.126-.525-1.014 0-1.803.788-1.803 1.875 0 1.088.789 1.875 1.803 1.875.526 0 .901-.187 1.126-.525v.45h.789v-1.8zm-2.891 0c0-.637.413-1.162 1.088-1.162.639 0 1.09.487 1.09 1.162 0 .638-.451 1.163-1.09 1.163-.675-.038-1.088-.525-1.088-1.163zm-9.426-1.875c-1.051 0-1.802.75-1.802 1.875s.75 1.875 1.84 1.875c.525 0 1.051-.15 1.464-.487l-.375-.563c-.3.225-.676.375-1.052.375-.488 0-.976-.225-1.089-.862h2.666v-.3c.038-1.163-.638-1.913-1.652-1.913zm0 .675c.488 0 .826.3.901.863h-1.877c.075-.488.413-.863.976-.863zm19.564 1.2v-3.225h-.788v1.875c-.263-.337-.639-.525-1.127-.525-1.014 0-1.802.788-1.802 1.875 0 1.088.788 1.875 1.802 1.875.526 0 .901-.187 1.127-.525v.45h.788v-1.8zm-2.891 0c0-.637.413-1.162 1.089-1.162.638 0 1.089.487 1.089 1.162 0 .638-.45 1.163-1.09 1.163-.675-.038-1.088-.525-1.088-1.163zm-26.361 0v-1.8h-.789v.45c-.262-.337-.638-.525-1.126-.525-1.014 0-1.803.788-1.803 1.875 0 1.088.79 1.875 1.803 1.875.526 0 .901-.187 1.126-.525v.45h.789v-1.8zm-2.929 0c0-.637.413-1.162 1.089-1.162.638 0 1.089.487 1.089 1.162 0 .638-.45 1.163-1.089 1.163-.676-.038-1.089-.525-1.089-1.163z"/><path fill="#FF5F00" d="M105 4.072h12v20.967h-12z"/><path fill="#EB001B" d="M106.04 14.555c0-4.254 2.068-8.027 5.246-10.468a14.007 14.007 0 00-8.501-2.848C95.165 1.239 89 7.194 89 14.555c0 7.362 6.165 13.317 13.785 13.317 3.216 0 6.165-1.073 8.5-2.848-3.177-2.405-5.245-6.215-5.245-10.469z"/><path fill="#F79E1B" d="M133 14.555c0 7.362-6.165 13.317-13.785 13.317a14.007 14.007 0 01-8.5-2.848c3.216-2.442 5.245-6.215 5.245-10.469s-2.068-8.027-5.246-10.468a14.007 14.007 0 018.501-2.848c7.62 0 13.785 5.992 13.785 13.316z"/></g><g fill="#000" fill-rule="nonzero"><path d="M404.093 4H300.71C299.214 4 298 5.228 298 6.743v19.514c0 1.515 1.214 2.743 2.71 2.743h103.383C405.7 29 407 27.683 407 26.059V6.94C407 5.317 405.699 4 404.093 4zm2.18 22.059c0 1.218-.976 2.206-2.18 2.206H300.71a2.003 2.003 0 01-1.983-2.008V6.743a2.003 2.003 0 011.983-2.008h103.383c1.204 0 2.18.988 2.18 2.206V26.06z"/><path d="M310.187 12.14h-3.008v8.14h1.343v-3.148h1.665c1.68 0 2.729-.877 2.729-2.496s-1.05-2.496-2.729-2.496zm-.07 3.782h-1.595v-2.496h1.616c.966 0 1.477.446 1.477 1.248s-.532 1.21-1.477 1.21l-.02.038zM316.362 14.465c-.8-.008-1.568.3-2.113.85a2.56 2.56 0 00-.748 2.037c-.096 1.014.426 1.991 1.35 2.526.924.535 2.09.535 3.014 0 .924-.535 1.446-1.512 1.35-2.526.07-.747-.2-1.487-.743-2.037a2.923 2.923 0 00-2.11-.85zm0 4.708c-.919 0-1.506-.706-1.506-1.821s.572-1.821 1.506-1.821c.933 0 1.505.706 1.505 1.82 0 1.116-.594 1.815-1.505 1.815v.007zM324.88 18.316l-1.055-3.85h-1.106l-1.047 3.85-1.062-3.85h-1.384L321 20.278h1.166l1.077-3.807 1.077 3.807h1.167l1.772-5.814h-1.331zM329.925 14.465a2.713 2.713 0 00-1.951.882 2.724 2.724 0 00-.708 2.023c-.06.755.2 1.5.718 2.054a2.685 2.685 0 001.998.851 2.46 2.46 0 002.418-1.548l-1.057-.44c-.17.565-.71.936-1.297.895a1.502 1.502 0 01-1.539-1.542h3.914v-.426c.014-1.534-.85-2.749-2.496-2.749zm-1.368 2.223a1.362 1.362 0 011.368-1.157 1.105 1.105 0 011.198 1.15l-2.566.007zM334.958 15.369v-.858h-1.39v5.768h1.39v-3.027c-.025-.395.13-.782.424-1.062.295-.28.703-.427 1.12-.403.169-.012.339-.012.509 0v-1.32h-.394c-.691-.034-1.34.319-1.66.902zM339.678 14.465a2.713 2.713 0 00-1.951.882 2.725 2.725 0 00-.708 2.024c-.06.755.2 1.5.717 2.054a2.685 2.685 0 001.999.852 2.46 2.46 0 002.39-1.549l-1.093-.42c-.17.566-.71.938-1.297.896a1.502 1.502 0 01-1.49-1.542h3.929v-.426c0-1.556-.88-2.77-2.496-2.77zm-1.369 2.224c.106-.67.686-1.16 1.362-1.151a1.105 1.105 0 011.198 1.15h-2.56zM347.113 14.937a2.195 2.195 0 00-1.722-.744c-1.684 0-2.644 1.376-2.644 3.042s.96 3.043 2.644 3.043c.66.024 1.296-.25 1.722-.744v.61h1.371V12.14h-1.371v2.797zm0 2.492c.062.429-.07.863-.363 1.189a1.54 1.54 0 01-1.16.507c-.999 0-1.525-.744-1.525-1.875 0-1.13.534-1.875 1.524-1.875.846 0 1.524.603 1.524 1.704v.35zM355.631 14.195a2.218 2.218 0 00-1.76.744v-2.8H352.5v8.012h1.371v-.618c.431.493 1.067.767 1.73.745 1.676 0 2.636-1.385 2.636-3.045s-.93-3.038-2.606-3.038zm-.236 4.914a1.54 1.54 0 01-1.16-.507 1.466 1.466 0 01-.364-1.19v-.35c0-1.103.64-1.706 1.524-1.706.99 0 1.524.745 1.524 1.877 0 1.131-.572 1.876-1.524 1.876zM361.124 18.677l-1.455-4.212h-1.432l2.186 5.78-.226.564a.754.754 0 01-.86.602c-.15.011-.301.011-.452 0v1.15c.182.028.366.04.55.038a2.015 2.015 0 002.096-1.523l2.443-6.565h-1.425l-1.425 4.166zM388.713 13.302a2.261 2.261 0 00-1.606.657l-.105-.52H385.2v9.747l2.05-.445v-2.362a2.26 2.26 0 001.456.529c1.463 0 2.805-1.2 2.805-3.856 0-2.43-1.358-3.75-2.798-3.75zm-.49 5.757a1.213 1.213 0 01-.965-.392v-3.101c.248-.28.608-.432.98-.415.754 0 1.267.852 1.267 1.946 0 1.094-.52 1.962-1.282 1.962zM395.064 13.302c-1.854 0-2.98 1.676-2.98 3.79 0 2.5 1.331 3.768 3.228 3.768a4.175 4.175 0 002.124-.542V18.65a3.946 3.946 0 01-1.911.46c-.765 0-1.416-.29-1.515-1.261h3.808v-.742c.064-2.129-.899-3.805-2.754-3.805zm-1.04 3.019c0-.935.545-1.328 1.026-1.328.482 0 .991.393.991 1.328h-2.017zM380.128 13.972l-.124-.581h-1.688v6.888h1.95v-4.668c.36-.427.955-.59 1.492-.411v-1.81a1.325 1.325 0 00-1.63.582zM370.03 15.546c0-.326.267-.452.69-.452.7.015 1.387.198 2.002.533V13.68a5.203 5.203 0 00-2.003-.377c-1.639 0-2.73.873-2.73 2.339 0 2.295 3.072 1.924 3.072 2.909 0 .385-.327.51-.742.51a5.038 5.038 0 01-2.226-.666v1.992c.7.311 1.459.473 2.226.473 1.676 0 2.834-.85 2.834-2.339-.037-2.487-3.123-2.043-3.123-2.975zM376.229 11.558l-1.928.436v6.708c-.02.57.189 1.126.577 1.533.388.408.921.633 1.475.622.478.022.954-.073 1.39-.278v-1.69c-.255.113-1.5.496-1.5-.75v-3.005h1.5v-1.758h-1.5l-.014-1.818zM382.332 12.72l1.72-.363v-1.38l-1.72.364zM382.332 13.302h1.721v6.977h-1.721z"/></g><g fill="#000"><path d="M282.5 8.98c2.175 0 3.938 1.594 3.938 3.562v.791h.437c1.45 0 2.625 1.064 2.625 2.375v6.334c0 1.311-1.175 2.375-2.625 2.375h-8.75c-1.45 0-2.625-1.064-2.625-2.375v-6.334c0-1.311 1.175-2.375 2.625-2.375h.438v-.791c0-1.968 1.762-3.563 3.937-3.563zm4.375 5.145h-8.75c-.966 0-1.75.709-1.75 1.583v6.334c0 .874.784 1.583 1.75 1.583h8.75c.966 0 1.75-.709 1.75-1.583v-6.334c0-.874-.784-1.583-1.75-1.583zM282.5 9.771c-1.691 0-3.063 1.24-3.063 2.77v.792h6.125v-.791c0-1.53-1.37-2.771-3.062-2.771z"/><path d="M282.5 16.5c.966 0 1.75.709 1.75 1.583 0 .738-.558 1.358-1.313 1.534v.841c0 .219-.195.396-.437.396s-.438-.177-.438-.396v-.841c-.754-.176-1.312-.796-1.312-1.534 0-.874.784-1.583 1.75-1.583zm0 .792c-.483 0-.875.354-.875.791 0 .438.392.792.875.792s.875-.354.875-.792c0-.437-.392-.791-.875-.791z"/></g></g></svg>